<svg xmlns="http://www.w3.org/2000/svg" version="1.1" xmlns:xlink="http://www.w3.org/1999/xlink" xmlns:svgjs="http://svgjs.dev/svgjs" width="100%" height="100%" viewBox="0 0 1000 600"><rect width="1000" height="600" x="0" y="0" fill="#e6beaa"/><g><circle r="166.66666666666666" cx="379.2684885660807" cy="401.4907553783029" fill="#1d1b1b" transform="matrix(0.587953514356781,0,0,0.5879535143567812,0,63.942116205915)"/><path d="M427.8304494085876 436.1620619823479L427.8304494085876 436.1620619823479Q427.8304494085876 445.2644634490691 424.0377821307871 452.6601646407801Q420.24511485298655 460.0558658324912 413.924002723319 465.3656000214119Q407.60289059365147 470.706939770981 399.38544482508365 473.58304578997974Q391.1363934958675 476.4907573696268 382.2552309536846 476.4907573696268L382.2552309536846 476.4907573696268Q370.0238789827779 476.4907573696268 359.8152828933648 471.9395566362662Q349.6066868039517 467.3883559029055 343.6016302807675 458.47558780007427L343.6016302807675 458.47558780007427L343.6016302807675 473.93070695711145L330.7065615362457 473.93070695711145L330.7065615362457 429.809344292032L343.6016302807675 429.809344292032Q343.6016302807675 437.26825660503965 347.0466363914363 443.4313409314655Q350.49164250210515 449.5944252578914 355.8013766910259 454.050809309307Q361.142716440595 458.47558780007427 368.09593978322926 460.972427091293Q375.0491631258636 463.50087194316 382.2552309536846 463.50087194316L382.2552309536846 463.50087194316Q388.7027653259455 463.50087194316 394.13892175745957 461.66774942555645Q399.606683749622 459.83462690795284 403.7154066339059 456.4212263579323Q407.8241295181898 453.0394313685602 410.1945465668151 448.1405694680679Q412.5965691760888 443.27331312822383 412.5965691760888 437.0470176805013L412.5965691760888 437.0470176805013Q412.5965691760888 430.03058321657034 409.53082979320004 425.036904634133Q406.49669597095965 420.0432260516956 401.3133840246322 416.4717976984335Q396.16167763895317 412.93197490581963 389.7141432666923 410.43513561460094Q383.2666088944314 407.93829632338225 376.5978355976321 405.4730625928119L376.5978355976321 405.4730625928119Q368.6964454355477 402.69177325575816 360.8266608341116 399.6576394335178Q352.9252706720272 396.591900050629 346.6989752243046 391.914277074675Q340.4726797765821 387.26825965936933 336.5851958168365 380.5362752412734Q332.697711857091 373.8042908231775 332.697711857091 363.81693365830273L332.697711857091 363.81693365830273Q332.697711857091 354.9357711161199 336.49037913489155 347.9825477734855Q340.25144085204374 341.02932443085126 346.38291961782124 336.2568847729523Q352.4827928229504 331.4844451150533 360.60542190957324 328.9876058238346Q368.6964454355477 326.4907665326159 377.2615523712472 326.4907665326159L377.2615523712472 326.4907665326159Q387.81780962779203 326.4907665326159 396.7621832912716 330.82072834143815Q405.7065569547512 335.15069015026046 410.7002355371886 344.03185269244335L410.7002355371886 344.03185269244335L410.7002355371886 328.9243947025379L424.1642043733804 328.9243947025379L424.1642043733804 370.35928471250867L410.7002355371886 370.35928471250867Q410.7002355371886 363.81693365830273 407.9821573214315 358.09632718095366Q405.26407910567445 352.37572070360454 400.5864561297205 348.33020894061724Q395.9404387144148 344.2530916169817 389.93538219123064 341.8826745683564Q383.93032566804646 339.4806519590827 377.2615523712472 339.4806519590827L377.2615523712472 339.4806519590827Q371.3829180906564 339.4806519590827 366.0415783410873 340.8080855063129Q360.7002385915182 342.1355190535431 356.7179379498277 345.1064417544868Q352.7040317474888 348.04575889478224 350.3020091382151 352.6917763100879Q347.9315920895898 357.36939928604187 347.9315920895898 363.81693365830273L347.9315920895898 363.81693365830273Q347.9315920895898 369.47432901435525 350.74448698729185 373.48823521669414Q353.58898744564226 377.47053585838466 358.36142710354125 380.5362752412734Q363.13386676144023 383.6020146241622 369.42337333045947 386.09885391538086Q375.71287989947865 388.59569320659955 382.2552309536846 391.1557436191149L382.2552309536846 391.1557436191149Q390.4726767222524 394.03184963811367 398.5953058088752 397.6032779913758Q406.717934895498 401.1431007839896 413.13386370711055 406.136779366427Q419.58139807937147 411.16206350951273 423.6901209636554 418.43134245863035Q427.8304494085876 425.7006214077481 427.8304494085876 436.1620619823479Z " fill="#e6beaa" transform="matrix(0.587953514356781,0,0,0.5879535143567812,0,63.942116205915)"/><path d="M705.4082495695766 412.4669706344155L705.4082495695766 412.4669706344155Q705.4082495695766 419.6027485245212 702.4350087820326 425.40056806023205Q699.4617679944886 431.19838759594296 694.5063666819151 435.3609246985047Q689.5509653693416 439.54823880762916 683.1089436629962 441.8029464048501Q676.6421449500879 444.0824310086339 669.6798061059224 444.0824310086339L669.6798061059224 444.0824310086339Q660.0911045660928 444.0824310086339 652.0881314462866 440.514542063581Q644.0851583264806 436.94665311852816 639.3775270795359 429.95953726779965L639.3775270795359 429.95953726779965L639.3775270795359 442.0754934770416L629.268508401886 442.0754934770416L629.268508401886 407.48679231527916L639.3775270795359 407.48679231527916Q639.3775270795359 413.33416586411585 642.0782207948884 418.1656821438749Q644.7789145102408 422.99719842363396 648.9414516128026 426.4907563489982Q653.128765721927 429.95953726779965 658.5797071657578 431.91692078626613Q664.0306486095885 433.8990813112955 669.6798061059224 433.8990813112955L669.6798061059224 433.8990813112955Q674.7343154447472 433.8990813112955 678.9959605735603 432.4620149306492Q683.2823827089363 431.02494855000293 686.5033935621091 428.3490318412133Q689.7244044152817 425.6978921389865 691.5826799074968 421.85745612174213Q693.4657324062747 418.0417971110606 693.4657324062747 413.16072681817576L693.4657324062747 413.16072681817576Q693.4657324062747 407.66023136121925 691.0623627696766 403.7454643242863Q688.6837701396413 399.83069728735325 684.6203410633311 397.0308955457493Q680.5816889935838 394.25587081070813 675.5271796547589 392.29848729224165Q670.472670315934 390.34110377377516 665.2447219311691 388.40849726187156L665.2447219311691 388.40849726187156Q659.0504702904523 386.2281206843392 652.8809956562984 383.849528054304Q646.6867440155816 381.4461584177059 641.8056737226968 377.7791614464016Q636.924603429812 374.1369414816601 633.8770316225794 368.8594390837694Q630.8294598153467 363.5819366858787 630.8294598153467 355.7524026120127L630.8294598153467 355.7524026120127Q630.8294598153467 348.7900637678471 633.8027006028908 343.33912232401633Q636.7511643838719 337.8881808801856 641.5579036570682 334.14685288919264Q646.3398659237015 330.4055248981997 652.7075566103583 328.4481413797332Q659.0504702904523 326.49075786126673 665.7650390689893 326.49075786126673L665.7650390689893 326.49075786126673Q674.0405592609868 326.49075786126673 681.0524521182783 329.8852077603795Q688.0643449755696 333.2796576594923 691.9791120125026 340.2419965036579L691.9791120125026 340.2419965036579L691.9791120125026 328.39858736660744L702.534116808284 328.39858736660744L702.534116808284 360.8812429705262L691.9791120125026 360.8812429705262Q691.9791120125026 355.7524026120127 689.848289448096 351.2677644241338Q687.7174668836894 346.7831262362548 684.0504699123852 343.61166939620784Q680.4082499476438 340.415435549598 675.700618700699 338.55716005738293Q670.9929874537543 336.6741075586051 665.7650390689893 336.6741075586051L665.7650390689893 336.6741075586051Q661.1565158482961 336.6741075586051 656.9692017391715 337.7147418342455Q652.7818876300469 338.7553761098859 649.6599848031257 341.08441472679544Q646.5133049696416 343.38867633714204 644.6302524708636 347.0308963018835Q642.7719769786486 350.69789327318784 642.7719769786486 355.7524026120127L642.7719769786486 355.7524026120127Q642.7719769786486 360.18748678676593 644.9771305627438 363.3341666202501Q647.2070611534018 366.4560694471713 650.9483891443947 368.8594390837694Q654.6897171353877 371.2628087203675 659.6203414413983 373.22019223883404Q664.5509657474088 375.17757575730053 669.6798061059224 377.18451328889273L669.6798061059224 377.18451328889273Q676.1218278122677 379.4392208861137 682.4895184989246 382.23902262771765Q688.8572091855814 385.01404736275873 693.8869415178434 388.92881439969176Q698.9414508566683 392.8683584431876 702.162461709841 398.56706995264705Q705.4082495695766 404.2657814621065 705.4082495695766 412.4669706344155ZM724.2883285704813 420.1230656623414L724.2883285704813 420.1230656623414Q724.2883285704813 412.4669706344155 728.1287645877258 407.28857626277625Q731.9692006049701 402.0854048845742 738.1882292522497 399.08738709046725Q744.4320349060922 396.0893692963603 752.484562039024 394.7266339354026Q760.5370891719558 393.3886755810078 768.886940383642 393.3886755810078L768.886940383642 393.3886755810078Q772.1327282433776 393.3886755810078 774.6847599193529 393.4630066006964Q777.2615686018911 393.5621146269479 779.5658302122378 393.73555367288793Q781.8700918225844 393.908992718828 784.2239074460568 394.1567627844567Q786.5777230695292 394.4293098566482 789.3775248111332 394.7761879485284L789.3775248111332 394.7761879485284L789.3775248111332 388.92881439969176Q789.3775248111332 383.00710983116653 786.8007161285949 379.191450820485Q784.2239074460568 375.3510148032406 780.4825794550638 373.12108421258256Q776.741251464071 370.9159306284874 772.6530453811979 369.9991813856613Q768.540062291762 369.0824321428352 765.6659295304694 369.0824321428352L765.6659295304694 369.0824321428352Q756.6223221350228 369.0824321428352 748.9414501005341 371.5105787859962Q741.2853550726081 373.96350243572005 734.6698943203227 378.0517085185931L734.6698943203227 378.0517085185931L729.2685068896176 369.0824321428352Q736.5777238256634 364.647347968082 745.6956622407985 361.7979922133523Q754.7888236493707 358.97341346518544 765.6659295304694 358.97341346518544L765.6659295304694 358.97341346518544Q772.3061672893177 358.97341346518544 778.6986349825374 360.68302691802324Q785.0911026757572 362.3678633642982 790.1951660277077 365.91097530278824Q795.2992293796584 369.42931023471533 798.346801186891 375.17757575730053Q801.3943729941237 380.9258412798857 801.3943729941237 388.92881439969176L801.3943729941237 388.92881439969176L801.3943729941237 442.0754934770416L789.3775248111332 442.0754934770416L789.3775248111332 428.4976938805905Q786.2308449776491 432.41246091752345 782.2665239275904 435.3609246985047Q778.3022028775316 438.3341654860487 773.9414497224669 440.19244097826373Q769.6054735739652 442.0754934770416 765.2447204189006 443.0665737395563Q760.883967263836 444.0824310086339 756.969200226903 444.0824310086339L756.969200226903 444.0824310086339Q740.8393689544765 444.0824310086339 732.563848762479 437.8881793679171Q724.2883285704813 431.7187047337632 724.2883285704813 420.1230656623414ZM756.969200226903 433.8990813112955L756.969200226903 433.8990813112955Q764.4518562088889 433.8990813112955 770.4231147905398 431.66915072063745Q776.3943733721908 429.43922012997945 780.5816874813153 426.1438782571181Q784.744224583877 422.82375937769393 787.0484861942236 419.082431386701Q789.3775248111332 415.34110339570805 789.3775248111332 412.29353158847545L789.3775248111332 412.29353158847545L789.3775248111332 404.6126595539866Q783.5301512622965 403.7454643242863 778.1783178447172 403.6711333045977Q772.8264844271379 403.5720252783462 768.886940383642 403.5720252783462L768.886940383642 403.5720252783462Q762.4449186772966 403.5720252783462 756.4736600956456 404.4392205080465Q750.5271785205575 405.3064157377469 746.0673173392415 407.28857626277625Q741.6322331644883 409.24595978124273 738.9315394491358 412.367862608164Q736.2308457337832 415.51454244164813 736.2308457337832 420.1230656623414L736.2308457337832 420.1230656623414Q736.2308457337832 425.2519060208549 741.2358010594824 429.58788216935665Q746.2407563851816 433.8990813112955 756.969200226903 433.8990813112955ZM891.2853528042054 360.8812429705262L905.5569085844169 360.8812429705262L861.6768299615793 462.6404089242213Q858.2576030559036 471.16369918184756 852.0881284217497 473.8148388840744Q845.8938767810329 476.490755592864 838.4112207990471 476.490755592864L838.4112207990471 476.490755592864Q830.036592580798 476.490755592864 821.6867413691118 473.44318378563133L821.6867413691118 473.44318378563133L824.0405569925841 463.16072606204153Q828.1287630754572 464.8951165214422 832.0435301123902 465.6384267183282Q835.9582971493232 466.3817369152143 838.4112207990471 466.3817369152143L838.4112207990471 466.3817369152143Q844.3329253675723 466.3817369152143 846.5628559582303 463.50760415392165Q848.7680095423256 460.6334713926291 850.4280689820376 456.71870435569605L850.4280689820376 456.71870435569605L855.383470294611 444.429309100514L819.1594866996994 360.8812429705262L833.2576034339708 360.8812429705262L862.5440251912796 431.89214377970325L891.2853528042054 360.8812429705262ZM1090.4924855696568 328.39858736660744L1103.3021979626592 328.39858736660744L1082.836390541731 442.0754934770416L1068.7134968008968 442.0754934770416L1057.1426347360375 386.5997757827822L1045.3735566186756 442.0754934770416L1031.4488789303446 442.0754934770416L1011.1317335487935 328.39858736660744L1023.7680068958556 328.39858736660744L1039.7987301420308 421.95656414799356L1051.2209301675125 360.8812429705262L1062.9652312783114 360.8812429705262L1074.4617623234817 421.95656414799356L1090.4924855696568 328.39858736660744ZM1190.9384701755198 392.00116321348725L1190.9384701755198 442.0754934770416L1178.8968449859665 442.0754934770416L1178.8968449859665 392.00116321348725Q1178.8968449859665 381.09928032582576 1174.2139907455846 375.07846773104905Q1169.50635949864 369.0824321428352 1158.9513547028585 369.0824321428352L1158.9513547028585 369.0824321428352Q1152.3358939505729 369.0824321428352 1146.9840605329937 372.1300039500679Q1141.6322271154145 375.17757575730053 1137.8908991244216 380.2816391092511Q1134.1247941268657 385.3609254546389 1132.1674106083992 391.95160920036153Q1130.2100270899327 398.5175159395213 1130.2100270899327 405.653293829627L1130.2100270899327 405.653293829627L1130.2100270899327 442.0754934770416L1118.2922869331937 442.0754934770416L1118.2922869331937 328.39858736660744L1130.2100270899327 328.39858736660744L1130.2100270899327 381.27271937176585Q1138.8324253738106 358.97341346518544 1160.9582922344507 358.97341346518544L1160.9582922344507 358.97341346518544Q1190.9384701755198 358.97341346518544 1190.9384701755198 392.00116321348725L1190.9384701755198 392.00116321348725ZM1293.4657233326639 405.653293829627L1223.322017753187 405.653293829627Q1224.6351991010192 418.5621142488808 1232.7372802470768 426.2182092768067Q1240.8393613931344 433.8990813112955 1253.8225128320764 433.8990813112955L1253.8225128320764 433.8990813112955Q1262.9652282537745 433.8990813112955 1270.10100614388 430.1329763137397Q1277.2615610405487 426.3916483227468 1280.829449985602 420.8168218461017L1280.829449985602 420.8168218461017L1289.1793011972882 426.5650873686868Q1283.0841575828226 435.113154632876 1274.6351983448849 439.59779282075493Q1266.1862391069471 444.0824310086339 1253.8225128320764 444.0824310086339L1253.8225128320764 444.0824310086339Q1244.4072503381872 444.0824310086339 1236.577716264321 440.93575117514973Q1228.7234051838923 437.8138483482285 1223.024693674433 432.18946785845765Q1217.3259821649733 426.5650873686868 1214.1793023314892 418.8098843145095Q1211.057399504568 411.0546812603321 1211.057399504568 401.56508774675393L1211.057399504568 401.56508774675393Q1211.057399504568 392.3480413053674 1213.8819782527348 384.54328423806425Q1216.7065570009017 376.73852717076113 1222.058390418481 371.0398156613017Q1227.4350008426231 365.3411041518423 1235.091095870549 362.1448703052324Q1242.7471908984749 358.97341346518544 1252.261561418616 358.97341346518544L1252.261561418616 358.97341346518544Q1262.6183501618943 358.97341346518544 1270.3735532160717 362.4669713905497Q1278.1287562702491 365.9357523093511 1283.3071506418887 372.0804499369421Q1288.4855450135274 378.2251475645332 1290.9632456698146 386.7732148287223Q1293.4657233326639 395.2965050863486 1293.4657233326639 405.653293829627L1293.4657233326639 405.653293829627ZM1223.4954567991272 395.4699441322887L1280.829449985602 395.4699441322887Q1278.8225124540095 382.13991460146616 1271.1664174260836 375.62356187543213Q1263.4855453915948 369.0824321428352 1252.261561418616 369.0824321428352L1252.261561418616 369.0824321428352Q1246.5132958960307 369.0824321428352 1241.6322256031458 370.9407076350503Q1236.7511553102613 372.82376013382816 1233.0098273192682 376.3173180591924Q1229.2684993282753 379.7860989779938 1226.7412446588628 384.71672328400433Q1224.2139899894505 389.6473475900149 1223.4954567991272 395.4699441322887L1223.4954567991272 395.4699441322887ZM1389.4518467572111 362.5413024102383L1385.5370797202781 372.30344299600796Q1379.0702810073699 369.0824321428352 1370.2001126578634 369.0824321428352L1370.2001126578634 369.0824321428352Q1362.8661187152547 369.0824321428352 1357.1178531926694 372.2043349697565Q1351.3695876700845 375.3510148032406 1347.3804896134625 380.4550781551912Q1343.366614550278 385.53436450057893 1341.2357919858719 392.1250482463016Q1339.1049694214648 398.69095498546136 1339.1049694214648 405.653293829627L1339.1049694214648 405.653293829627L1339.1049694214648 431.89214377970325L1357.4895082911125 431.89214377970325L1357.4895082911125 442.0754934770416L1308.7779133885156 442.0754934770416L1308.7779133885156 431.89214377970325L1327.1624522581633 431.89214377970325L1327.1624522581633 371.0893696744275L1308.7779133885156 371.0893696744275L1308.7779133885156 360.8812429705262L1339.1049694214648 360.8812429705262L1339.1049694214648 381.27271937176585Q1347.2813815872114 358.97341346518544 1370.2001126578634 358.97341346518544L1370.2001126578634 358.97341346518544Q1376.369587292017 358.97341346518544 1380.9533335061474 359.7662776751972Q1385.5370797202781 360.5343648786461 1389.4518467572111 362.5413024102383L1389.4518467572111 362.5413024102383ZM1488.2129949167993 405.653293829627L1418.0940663438855 405.653293829627Q1419.4072476917172 418.5621142488808 1427.5093288377748 426.2182092768067Q1435.6114099838323 433.8990813112955 1448.5945614227749 433.8990813112955L1448.5945614227749 433.8990813112955Q1457.7372768444725 433.8990813112955 1464.873054734578 430.1329763137397Q1472.0336096312471 426.3916483227468 1475.6014985763 420.8168218461017L1475.6014985763 420.8168218461017L1483.9513497879861 426.5650873686868Q1477.8562061735206 435.113154632876 1469.4072469355829 439.59779282075493Q1460.9582876976456 444.0824310086339 1448.5945614227749 444.0824310086339L1448.5945614227749 444.0824310086339Q1439.1792989288851 444.0824310086339 1431.3497648550192 440.93575117514973Q1423.4954537745903 437.8138483482285 1417.796742265131 432.18946785845765Q1412.0980307556715 426.5650873686868 1408.9513509221874 418.8098843145095Q1405.829448095266 411.0546812603321 1405.829448095266 401.56508774675393L1405.829448095266 401.56508774675393Q1405.829448095266 392.3480413053674 1408.6540268434328 384.54328423806425Q1411.4786055915997 376.73852717076113 1416.8304390091794 371.0398156613017Q1422.2070494333211 365.3411041518423 1429.863144461247 362.1448703052324Q1437.5192394891733 358.97341346518544 1447.033610009314 358.97341346518544L1447.033610009314 358.97341346518544Q1457.3903987525923 358.97341346518544 1465.1456018067697 362.4669713905497Q1472.9008048609471 365.9357523093511 1478.0791992325867 372.0804499369421Q1483.2575936042258 378.2251475645332 1485.7352942605125 386.7732148287223Q1488.2129949167993 395.2965050863486 1488.2129949167993 405.653293829627L1488.2129949167993 405.653293829627ZM1418.2675053898256 395.4699441322887L1475.6014985763 395.4699441322887Q1473.5945610447075 382.13991460146616 1465.913689010219 375.62356187543213Q1458.2575939822927 369.0824321428352 1447.033610009314 369.0824321428352L1447.033610009314 369.0824321428352Q1441.2853444867287 369.0824321428352 1436.4042741938442 370.9407076350503Q1431.5232039009593 372.82376013382816 1427.7818759099664 376.3173180591924Q1424.0157709124105 379.7860989779938 1421.5132932495608 384.71672328400433Q1418.9860385801485 389.6473475900149 1418.2675053898256 395.4699441322887L1418.2675053898256 395.4699441322887Z " fill="#1d1b1b" transform="matrix(0.587953514356781,0,0,0.5879535143567812,0,63.942116205915)"/></g></svg>